<svg width="320" height="77" viewBox="0 0 320 77" fill="none" xmlns="http://www.w3.org/2000/svg">
<path fill-rule="evenodd" clip-rule="evenodd" d="M320 75.6768L306.667 70.8318C293.333 65.9868 266.667 56.2968 240 54.6817C213.333 53.0667 186.667 59.5267 160 65.9867C133.333 72.4467 106.667 78.9067 80 75.6767C53.3333 72.4467 26.6667 59.5267 13.3333 53.0667L2.61649e-06 46.6067L5.15787e-06 17.5367L13.3333 17.5367C26.6667 17.5367 53.3333 17.5367 80 17.5367C106.667 17.5367 133.333 17.5367 160 17.5367C186.667 17.5367 213.333 17.5367 240 17.5368C266.667 17.5368 293.333 17.5368 306.667 17.5368L320 17.5368L320 75.6768Z" fill="#FABF28"/>
<path fill-rule="evenodd" clip-rule="evenodd" d="M320 58.14L306.667 53.295C293.333 48.45 266.667 38.76 240 37.145C213.333 35.53 186.667 41.99 160 48.45C133.333 54.91 106.667 61.37 80 58.14C53.3333 54.91 26.6667 41.99 13.3333 35.53L-2.79011e-05 29.07L-2.53597e-05 -1.27165e-05L13.3333 -1.15509e-05C26.6667 -1.03852e-05 53.3333 -8.05395e-06 80 -5.72268e-06C106.667 -3.3914e-06 133.333 -1.06013e-06 160 1.27114e-06C186.667 3.60242e-06 213.333 5.93369e-06 240 8.26497e-06C266.667 1.05962e-05 293.333 1.29275e-05 306.667 1.40932e-05L320 1.52588e-05L320 58.14Z" fill="#00A651"/>
</svg>
